<?xml version="1.0" standalone="no"?>
<!DOCTYPE svg PUBLIC "-//W3C//DTD SVG 20010904//EN"
 "http://www.w3.org/TR/2001/REC-SVG-20010904/DTD/svg10.dtd">
<svg version="1.0" xmlns="http://www.w3.org/2000/svg"
 width="96.000000pt" height="96.000000pt" viewBox="0 0 96.000000 96.000000"
 preserveAspectRatio="xMidYMid meet">

<g transform="translate(0.000000,96.000000) scale(0.100000,-0.100000)"
fill="#000000" stroke="none">
<path d="M577 810 c-5 -21 -14 -31 -32 -36 -31 -8 -31 -9 -1 -45 13 -15 27
-34 29 -41 4 -10 9 -8 17 5 6 9 29 26 51 37 21 11 39 23 39 26 0 3 -13 10 -29
15 -17 6 -34 22 -41 40 -16 37 -26 37 -33 -1z m31 -72 c-20 -15 -25 -15 -38
-3 -12 13 -12 17 5 29 15 10 23 11 37 2 17 -10 17 -12 -4 -28z"/>
<path d="M244 800 c-32 -21 -73 -73 -95 -122 -16 -36 -4 -90 28 -128 l26 -31
-21 -22 c-11 -12 -24 -35 -28 -52 -9 -40 -19 -52 -52 -58 -36 -7 -82 -50 -82
-77 0 -12 11 -31 25 -44 14 -13 25 -28 25 -34 0 -16 50 -52 73 -52 11 0 40 9
64 21 38 18 48 19 74 9 24 -11 37 -10 74 5 l45 17 31 -26 c40 -34 77 -33 125
3 l39 28 37 -40 c33 -35 41 -39 70 -33 18 4 41 15 52 25 17 17 20 18 45 3 79
-45 177 53 125 126 -9 13 -13 31 -9 42 9 29 -11 83 -41 111 -20 19 -37 24 -74
24 -47 0 -49 1 -60 39 -23 76 -75 102 -145 72 -28 -11 -31 -10 -63 21 -43 44
-77 43 -136 -2 -44 -34 -48 -34 -71 -19 -54 35 -72 112 -40 173 22 44 7 52
-41 21z m11 -30 c-3 -5 -6 -32 -7 -60 0 -56 26 -101 72 -125 20 -11 27 -20 23
-34 -4 -17 -13 -20 -57 -19 -28 0 -62 7 -74 15 -35 22 -55 76 -43 118 9 35 68
115 83 115 5 0 6 -4 3 -10z m259 -153 c12 -12 27 -30 32 -40 9 -16 12 -16 49
3 74 37 99 23 131 -73 13 -39 19 -47 33 -41 26 13 78 9 97 -7 28 -23 45 -74
34 -104 -8 -21 -6 -29 11 -46 21 -21 20 -59 -2 -86 -21 -25 -70 -26 -101 -3
l-29 21 -28 -30 c-16 -17 -37 -31 -47 -31 -9 0 -35 19 -56 42 -28 31 -43 40
-52 33 -84 -62 -104 -65 -149 -26 l-35 31 -46 -20 c-42 -19 -48 -20 -75 -5
-28 14 -33 13 -81 -12 -48 -25 -54 -26 -79 -12 -14 8 -27 24 -29 36 -2 12 -12
25 -22 28 -21 7 -32 29 -24 49 3 8 31 27 62 43 49 24 58 33 67 67 18 62 48 80
123 73 57 -6 62 -5 62 14 0 33 27 75 62 98 42 27 64 26 92 -2z"/>
<path d="M810 725 c-6 -19 -25 -44 -41 -56 -36 -25 -37 -37 -4 -45 14 -3 25
-9 25 -13 0 -3 9 -17 20 -31 l19 -25 11 32 c7 19 22 36 41 43 40 17 45 28 15
40 -14 5 -34 27 -46 50 -11 22 -22 40 -24 40 -3 0 -10 -16 -16 -35z m32 -93
c-22 -21 -26 -22 -34 -8 -5 9 -17 16 -26 16 -13 1 -10 6 11 21 15 11 27 28 27
37 0 12 7 8 24 -13 l24 -30 -26 -23z"/>
</g>
</svg>
