<?xml version="1.0" standalone="no"?>
<!DOCTYPE svg PUBLIC "-//W3C//DTD SVG 20010904//EN"
 "http://www.w3.org/TR/2001/REC-SVG-20010904/DTD/svg10.dtd">
<svg version="1.0" xmlns="http://www.w3.org/2000/svg"
 width="180.000000pt" height="180.000000pt" viewBox="0 0 180.000000 180.000000"
 preserveAspectRatio="xMidYMid meet">

<g transform="translate(0.000000,180.000000) scale(0.100000,-0.100000)"
fill="#000000" stroke="none">
<path d="M1096 1558 c-23 -78 -32 -92 -74 -106 -23 -7 -42 -18 -42 -24 0 -6
14 -26 31 -45 17 -20 38 -51 47 -69 19 -41 32 -43 59 -6 12 16 46 41 76 56 92
45 98 66 21 85 -42 11 -47 16 -70 66 -23 53 -41 69 -48 43z m72 -138 c21 0 13
-18 -10 -25 -13 -4 -33 -16 -44 -27 -22 -19 -22 -19 -45 13 -15 22 -19 34 -11
37 6 2 22 12 34 22 22 18 24 18 44 -1 11 -10 26 -19 32 -19z"/>
<path d="M458 1500 c-82 -54 -167 -173 -187 -258 -17 -80 21 -190 83 -240 14
-11 26 -23 26 -27 0 -3 -15 -21 -34 -38 -24 -23 -39 -51 -51 -92 -9 -33 -18
-66 -20 -73 -3 -6 -21 -19 -42 -28 -95 -39 -149 -73 -170 -104 -40 -59 -25
-123 37 -153 14 -7 27 -23 29 -37 5 -37 40 -81 77 -96 65 -27 131 -12 237 54
26 16 29 16 67 -5 51 -30 102 -29 168 2 30 14 59 25 66 25 7 0 25 -14 42 -31
77 -82 175 -80 280 6 23 19 47 35 52 35 5 0 28 -25 51 -55 79 -105 154 -112
248 -22 29 28 34 29 50 16 29 -25 71 -39 114 -39 138 0 228 156 149 257 -17
22 -19 35 -14 89 6 56 4 70 -20 118 -47 97 -137 146 -238 131 l-43 -6 -24 63
c-29 77 -63 131 -93 152 -33 24 -113 20 -183 -9 l-59 -25 -44 51 c-44 49 -95
79 -136 79 -36 -1 -99 -35 -155 -86 l-54 -48 -46 25 c-26 15 -61 47 -81 75
-33 46 -35 52 -34 129 0 62 5 89 22 122 12 23 22 49 22 58 0 25 -42 18 -92
-15z m18 -56 c-12 -31 -18 -123 -12 -167 10 -62 55 -127 125 -176 l59 -41 -11
-35 c-8 -28 -14 -34 -30 -29 -10 3 -53 6 -95 6 -84 -1 -116 11 -155 57 -55 66
-61 174 -13 254 48 81 153 185 132 131z m453 -265 c21 -11 52 -43 70 -70 18
-28 38 -52 46 -55 7 -3 29 6 50 20 73 50 159 60 192 24 23 -25 60 -103 87
-186 10 -28 21 -52 26 -52 5 0 25 9 44 21 33 19 41 20 87 9 66 -16 122 -68
139 -130 12 -44 10 -64 -16 -140 -3 -10 4 -21 19 -29 27 -15 47 -50 47 -84 0
-55 -75 -127 -133 -127 -37 0 -87 22 -111 49 -11 11 -23 21 -29 21 -5 0 -27
-20 -48 -44 -21 -24 -52 -49 -69 -56 -45 -19 -87 4 -142 77 -24 32 -52 59 -61
61 -10 2 -45 -17 -78 -42 -68 -51 -124 -72 -165 -62 -16 4 -50 30 -78 57 -27
27 -53 49 -57 49 -5 0 -29 -13 -55 -30 -26 -16 -66 -32 -89 -36 -36 -5 -49 -2
-81 20 -21 14 -46 26 -54 26 -8 0 -38 -15 -66 -34 -60 -41 -122 -61 -159 -52
-40 10 -75 50 -75 85 0 25 -7 34 -39 51 -47 23 -57 49 -37 88 19 36 48 56 116
78 73 24 107 55 115 107 11 64 34 106 74 132 50 32 100 38 188 24 83 -13 93
-9 93 44 0 80 115 195 204 206 4 1 25 -8 45 -20z"/>
<path d="M1519 1359 c-20 -51 -33 -69 -76 -102 -29 -21 -53 -47 -53 -57 0 -17
38 -40 66 -40 8 0 28 -23 45 -51 39 -62 58 -61 79 3 14 44 19 49 78 74 34 15
62 33 62 40 0 8 -20 23 -45 34 -40 17 -49 28 -78 87 -17 37 -37 69 -43 70 -7
2 -23 -24 -35 -58z m51 -52 c0 -7 14 -29 31 -50 l31 -37 -37 -16 c-21 -8 -39
-24 -42 -35 -7 -25 -29 -25 -36 1 -3 13 -17 22 -36 26 -39 8 -39 14 3 41 18
11 41 37 50 57 16 34 36 41 36 13z"/>
</g>
</svg>
